<?xml version="1.0" encoding="iso-8859-1"?>
<!-- Uploaded to: SVG Repo, www.svgrepo.com, Generator: SVG Repo Mixer Tools -->
<!DOCTYPE svg PUBLIC "-//W3C//DTD SVG 1.1//EN" "http://www.w3.org/Graphics/SVG/1.1/DTD/svg11.dtd">
<svg fill="#00FFFF" version="1.1" id="Capa_1" xmlns="http://www.w3.org/2000/svg" xmlns:xlink="http://www.w3.org/1999/xlink" 
	 width="800px" height="800px" viewBox="0 0 32.571 32.571"
	 xml:space="preserve">
<g>
	<path d="M27.849,28.182c-0.232-0.157-1.106-1.135-0.328-1.773c6.238-4.848-0.568-9.877-0.568-9.877s0.225-0.187,0.475-0.392
		c0.248-0.125,2.834-0.73,1.561-2.211c-1.272-1.48-1.99,1.555-1.917,1.729c-0.122,0.104-0.468,0.38-0.468,0.38
		s-3.265-2.036-5.686-0.145s-7.893,2.728-7.893,2.728s4.018-3.021,4.191-3.845c0.173-0.824,5.716-9.072-3.176-11.529
		C11.47-1.741,9.644-0.579,6.767,4.002C3.98,8.44,8.53,22.838,8.816,23.729c-0.72-0.715-1.516-1.25-2.511-1.073
		c-0.332-1.245-1.484-1.48-2.146-0.919c-0.438-0.543-1.095-1.466-1.295-2.324c0.071-0.069,0.122-0.176,0.128-0.298
		c0.013-0.221-0.108-0.405-0.27-0.415c-0.162-0.01-0.303,0.162-0.314,0.383c-0.011,0.212,0.104,0.391,0.258,0.408
		c0.221,0.915,0.893,1.858,1.34,2.406C4,21.902,3.993,21.912,3.986,21.918c-0.603-0.277-1.573-0.668-2.341-0.697
		c-0.072-0.116-0.244-0.173-0.427-0.124c-0.212,0.056-0.353,0.229-0.311,0.385c0.042,0.156,0.247,0.238,0.459,0.183
		c0.142-0.036,0.242-0.126,0.288-0.227c0.699,0.031,1.621,0.4,2.21,0.669c-0.009,0.018-0.019,0.027-0.027,0.049
		c-0.497,1.036,0.605,1.907,1,1.851c0.105,0.333,0.75,0.95,1.622,1.667l-1.15-0.095l-0.413,3.476l-0.973,0.57l0.094,0.158
		l1.052-0.617l0.402-3.39l1.017,0.084l-0.81,0.047l0.526,3.521l-0.956,0.494l0.084,0.163l1.072-0.555l-0.514-3.452l0.998-0.058
		c0.343,0.271,0.713,0.555,1.092,0.837l-0.317,0.968l0.802,0.645l-0.039,0.75l-0.679,1.105l-0.1,1.646l0.186,0.01L7.917,30.4
		l0.489-0.799l-0.151,2.96l0.184,0.01l0.169-3.298l0.788-1.283l-0.957-0.398l-0.048-0.428c2.167,1.594,4.511,3.127,4.462,3.041
		c0.65,0.493,2.16,1.776,2.755,1.78c0.098,0,1.444,0.211,0.834-1.069c-0.295-0.64-1.125-1.479-2.065-2.298
		c3.276,2.198,7.968,4.378,11.151,0.336c0.565-0.691,1.552-0.525,1.774-0.322c0.225,0.202,2.29,4.343,4.008,2.016
		C33.027,28.318,28.081,28.339,27.849,28.182z M9.125,28.078L8.626,28.89l0.025-0.508l-0.775-0.621l0.26-0.785
		c0.019,0.014,0.036,0.025,0.054,0.04l0.075,0.704L9.125,28.078z M10.148,23.996C8.195,21.967,6.475,8.188,7.46,5.533
		c0.985-2.655,2.232-3.364,4.406-1.164c1.378,1.325,4.124,0.352,4.65,4.563c0.526,4.211-4.097,9.291-4.566,10.004
		C11.218,20.049,11.142,24.031,10.148,23.996z M19.799,30.483c-2.062-0.835-8.541-5.13-8.541-5.13l-0.726-0.881
		c0,0,0.967-1.095,1.236-2.097c0.271-1.003-0.068-2.902,1.167-3.346c1.235-0.444,2.828,0.993,5.879-0.519
		c4.104-2.564,10.132-0.861,9.896,2.963C28.467,25.711,21.862,31.318,19.799,30.483z M10.45,3.889
		c0.378,0.322,0.365,0.957-0.027,1.417c-0.394,0.459-1.018,0.57-1.396,0.247C8.649,5.23,8.66,4.596,9.054,4.136
		C9.447,3.676,10.072,3.566,10.45,3.889z M12.295,6.626c-0.332,0.39-0.862,0.483-1.183,0.21c-0.321-0.273-0.311-0.812,0.022-1.201
		c0.333-0.389,0.862-0.484,1.183-0.211C12.638,5.698,12.628,6.235,12.295,6.626z M13.087,7.698c-0.32-0.273-0.31-0.811,0.022-1.2
		s0.861-0.483,1.182-0.21c0.321,0.273,0.31,0.811-0.022,1.2C13.937,7.877,13.408,7.971,13.087,7.698z M14.521,8.218
		c0.333-0.389,0.862-0.482,1.183-0.209c0.32,0.274,0.31,0.812-0.022,1.201c-0.334,0.389-0.863,0.483-1.184,0.209
		C14.178,9.145,14.188,8.608,14.521,8.218z M15.702,10.858c0.32,0.273,0.311,0.812-0.022,1.201s-0.863,0.483-1.184,0.209
		c-0.32-0.273-0.31-0.812,0.023-1.201C14.853,10.678,15.382,10.584,15.702,10.858z M22.358,19.209
		c-0.333,0.391-0.862,0.483-1.184,0.211c-0.32-0.273-0.311-0.812,0.021-1.201c0.333-0.39,0.862-0.484,1.184-0.211
		S22.691,18.818,22.358,19.209z M24.812,19.209c-0.333,0.391-0.862,0.483-1.184,0.211c-0.319-0.274-0.311-0.812,0.022-1.201
		s0.861-0.484,1.183-0.21C25.155,18.282,25.145,18.818,24.812,19.209z M25.694,20.279c-0.32-0.273-0.312-0.812,0.021-1.2
		c0.333-0.39,0.862-0.482,1.184-0.209c0.32,0.272,0.311,0.812-0.022,1.199C26.542,20.46,26.013,20.553,25.694,20.279z
		 M28.013,21.794c-0.333,0.389-0.861,0.481-1.183,0.209c-0.32-0.274-0.31-0.812,0.022-1.201c0.333-0.389,0.861-0.482,1.183-0.208
		C28.357,20.867,28.346,21.405,28.013,21.794z M27.2,23.093c0.32,0.273,0.311,0.812-0.022,1.201s-0.862,0.482-1.184,0.209
		c-0.32-0.273-0.31-0.812,0.023-1.201S26.878,22.818,27.2,23.093z M25.67,25.507c0.32,0.273,0.312,0.812-0.021,1.2
		c-0.332,0.39-0.861,0.482-1.183,0.209c-0.319-0.273-0.311-0.812,0.021-1.2C24.822,25.327,25.351,25.232,25.67,25.507z
		 M23.597,27.228c0.32,0.273,0.311,0.812-0.022,1.201s-0.862,0.483-1.183,0.21s-0.312-0.812,0.021-1.201
		C22.747,27.049,23.278,26.954,23.597,27.228z M21.227,28.369c0.319,0.272,0.311,0.812-0.022,1.2
		c-0.333,0.39-0.863,0.483-1.184,0.211c-0.32-0.274-0.311-0.812,0.022-1.201C20.376,28.189,20.907,28.095,21.227,28.369z"/>
</g>
</svg>