<svg width="71" height="107" viewBox="0 0 71 107" fill="none" xmlns="http://www.w3.org/2000/svg">
<g clip-path="url(#clip0_2_26)">
<path d="M17.75 107C27.548 107 35.5 99.0107 35.5 89.1667V71.3334H17.75C7.952 71.3334 0 79.3227 0 89.1667C0 99.0107 7.952 107 17.75 107Z" fill="#0ACF83"/>
<path d="M0 53.5C0 43.656 7.952 35.6666 17.75 35.6666H35.5V71.3333H17.75C7.952 71.3333 0 63.344 0 53.5Z" fill="#A259FF"/>
<path d="M0 17.8333C0 7.98933 7.952 0 17.75 0H35.5V35.6667H17.75C7.952 35.6667 0 27.6773 0 17.8333Z" fill="#F24E1E"/>
<path d="M35.5 0H53.25C63.048 0 71 7.98933 71 17.8333C71 27.6773 63.048 35.6667 53.25 35.6667H35.5V0Z" fill="#FF7262"/>
<path d="M71 53.5C71 63.344 63.048 71.3333 53.25 71.3333C43.452 71.3333 35.5 63.344 35.5 53.5C35.5 43.656 43.452 35.6666 53.25 35.6666C63.048 35.6666 71 43.656 71 53.5Z" fill="#1ABCFE"/>
</g>
<defs>
<clipPath id="clip0_2_26">
<rect width="71" height="107" fill="white"/>
</clipPath>
</defs>
</svg>
