<svg width="95" height="65" viewBox="0 0 95 65" fill="none" xmlns="http://www.w3.org/2000/svg">
<g clip-path="url(#clip0_2_81)">
<path d="M28.2606 42.892L31.1478 52.295C31.7964 54.4299 32.067 55.9203 31.9586 56.7697C33.5376 52.5248 34.6409 47.8989 35.2686 42.892H38.7401C37.2472 51.0433 35.2788 56.9666 32.8347 60.6617C30.9307 63.5093 28.8447 64.9329 26.5733 64.9329C25.9677 64.9329 25.221 64.7493 24.335 64.3846V62.4197C24.7679 62.4834 25.2758 62.5175 25.8599 62.5175C26.9193 62.5172 27.7738 62.2228 28.4234 61.6343C29.2014 60.9174 29.5908 60.1117 29.5908 59.2187C29.5908 58.6089 29.2871 57.3575 28.6824 55.4645L24.6597 42.892H28.2606ZM6.16442 37.1125L11.4525 53.3078H11.4852L16.8057 37.1125H21.1527C22.1046 45.1442 22.6668 52.493 22.8393 59.1541H19.1744C19.0453 52.9275 18.6885 47.0719 18.1042 41.5873H18.0723L12.4914 59.1541H9.70039L4.15328 41.5873H4.12063C3.70933 46.8546 3.44981 52.7102 3.34207 59.1541H0C0.215977 51.3168 0.756475 43.9703 1.62149 37.1125H6.16442Z" fill="#00758F"/>
<path d="M65.4049 36.7856C71.0932 36.7856 73.9375 40.4334 73.9375 47.7255C73.9375 51.6881 73.0821 54.6813 71.373 56.7033C71.065 57.0728 70.7245 57.3921 70.366 57.6878L74.3915 59.6857L74.3876 59.6855L72.9583 62.163L67.7161 59.0927C66.847 59.351 65.8913 59.4801 64.8492 59.4801C62.0561 59.4801 59.9699 58.663 58.5905 57.0309C57.0764 55.2255 56.3198 52.3832 56.3198 48.5089C56.3198 44.5686 57.1737 41.5868 58.8833 39.5621C60.4404 37.7101 62.6146 36.7856 65.4049 36.7856ZM47.9858 36.8174C50.0188 36.8174 51.8674 37.3635 53.5325 38.4517L52.6868 40.3435C51.262 39.7355 49.8572 39.4303 48.4719 39.4303C47.3478 39.4303 46.4817 39.7018 45.8779 40.2483C45.2708 40.7899 44.8953 41.4868 44.8953 42.3365C44.8953 43.6421 45.8219 44.7743 47.5328 45.7308C48.0933 46.0384 48.6519 46.3495 49.2085 46.6641L49.3362 46.7362L49.4002 46.7723L49.528 46.8444L49.5918 46.8805L49.7195 46.9528C51.0146 47.6857 52.2333 48.3852 52.2333 48.3852C53.944 49.6042 54.7968 50.9038 54.7968 53.0443C54.7968 54.9137 54.1144 56.4482 52.7539 57.6489C51.3926 58.8442 49.5636 59.4436 47.2732 59.4436C45.1311 59.4436 43.055 58.7537 41.0441 57.3856L41.9848 55.4922C43.7154 56.3629 45.2814 56.7978 46.6877 56.7978C48.0065 56.7978 49.0389 56.5022 49.7857 55.9185C50.5311 55.3305 50.9777 54.5105 50.9777 53.4707C50.9777 52.1619 50.0707 51.0431 48.4069 50.1046C47.8862 49.8158 47.3669 49.5242 46.8493 49.2298L46.7218 49.1574C46.4876 49.0246 46.2518 48.8901 46.0208 48.7584L45.8956 48.6869C44.7721 48.0455 43.8007 47.4851 43.8007 47.4851C42.1375 46.2639 41.3035 44.9536 41.3035 42.7946C41.3035 41.0091 41.9254 39.5659 43.1675 38.4679C44.4126 37.3676 46.0187 36.8174 47.9858 36.8174ZM80.6225 37.1124V56.4426H87.5319V59.154H77.1183V37.1126L80.6225 37.1124ZM91.3712 56.451V56.9091H90.6116V59.1515H90.0309V56.9091H89.2417V56.451H91.3712ZM92.774 56.451L93.5034 58.2918L94.1734 56.451H94.9966V59.1515H94.4493V57.0963L93.6867 59.1515H93.292L92.5281 57.0963H92.4988V59.1515H91.981V56.451H92.774ZM65.0472 39.4962C61.6951 39.4962 60.0181 42.2731 60.0181 47.8233C60.0181 51.0025 60.4625 53.3079 61.3496 54.7448C62.1712 56.0746 63.4579 56.7382 65.2101 56.7382C68.5622 56.7382 70.2389 53.9396 70.2389 48.3452C70.2389 45.2104 69.7946 42.9248 68.9086 41.4872C68.086 40.1604 66.7998 39.4962 65.0473 39.4962" fill="#F29111"/>
<path d="M56.2611 1.36576C57.3731 -1.37691 61.2613 0.700113 62.7701 1.65816C63.1399 1.89786 63.5641 2.40427 63.9881 2.59145C64.6495 2.61752 65.3104 2.66948 65.973 2.69723C67.2158 2.99039 68.3799 3.2299 69.3593 3.78975C73.9104 6.48008 76.873 9.22163 79.5996 13.75C80.1822 14.7092 80.4733 15.7471 80.9493 16.7851C81.6098 18.3322 82.352 19.9563 83.1187 21.4193C83.4619 22.1129 83.7275 22.8841 84.2041 23.4699C84.3902 23.7377 84.9189 23.8166 85.2348 23.9766C86.1084 24.4305 87.1668 24.7751 87.9884 25.3077C89.5226 26.268 91.0061 27.4123 92.3546 28.5838C92.8573 29.036 93.1998 29.6761 93.6787 30.1544V30.3958C93.2536 30.5267 92.83 30.6608 92.406 30.7683C91.48 31.0071 90.6597 30.9531 89.7613 31.192C89.2061 31.3537 88.5168 31.5669 87.9345 31.6211L87.9884 31.6755C88.3309 32.658 90.1841 33.457 91.0317 34.0446C92.0611 34.7903 93.015 35.6947 93.7828 36.7334C94.0479 36.9984 94.3131 37.2396 94.5769 37.5039C94.7614 37.7717 94.8133 38.1181 95 38.3569V38.4377C94.7933 38.3645 94.6447 38.2249 94.5038 38.0788L94.4198 37.9907C94.3357 37.9032 94.2509 37.8172 94.1543 37.7462C93.5702 37.3458 92.9901 36.8667 92.406 36.4944C91.4019 35.8549 90.2372 35.4837 89.2061 34.8417C88.6231 34.469 88.0674 34.0446 87.5117 33.6181C87.0079 33.2443 86.4531 32.5265 86.1366 31.9938C85.9501 31.6995 85.9245 31.3537 85.7115 31.1408C85.7495 30.7852 86.0741 30.6796 86.4016 30.5929L86.4769 30.5729C86.5899 30.5435 86.7005 30.5141 86.797 30.4751C88.1726 29.8888 89.8127 29.6761 91.9305 29.7294C91.8507 29.1956 90.5274 28.5305 90.1049 28.2109C89.2569 27.5975 88.3591 26.9573 87.4595 26.399C86.9829 26.1065 86.1615 25.8931 85.6334 25.6542C84.9189 25.361 83.3308 25.068 82.9348 24.5097C82.2622 23.6295 81.779 22.5796 81.31 21.5191L81.1823 21.2297L81.0543 20.9404C80.4999 19.6634 79.8111 18.3319 79.2554 17.0242C78.9648 16.3863 78.8314 15.8265 78.5132 15.2147C76.5822 11.4603 73.7243 8.31703 70.2592 6.10647C69.1205 5.38719 67.8508 4.72155 66.4491 4.26915C65.6548 4.02834 64.7015 4.1615 63.8552 3.97675H63.2982C62.8228 3.84228 62.4259 3.33643 62.055 3.06973C61.2358 2.51136 60.4153 2.13645 59.4357 1.73806C59.0924 1.57826 58.1122 1.20614 57.77 1.49911C57.5581 1.55256 57.4507 1.63284 57.3985 1.84627C57.1878 2.16476 57.3731 2.64453 57.5043 2.93824C57.9017 3.78938 58.4569 4.29523 58.9608 5.01451C59.4091 5.65241 59.966 6.37169 60.2838 7.06527C60.9696 8.55617 61.2889 10.208 61.9244 11.6987C62.16 12.2593 62.5328 12.8972 62.8759 13.4029C63.1666 13.8042 63.6953 14.0944 63.8552 14.6025C64.174 15.1351 63.378 16.8927 63.1937 17.4509C62.5044 19.635 62.638 22.671 63.4318 24.5642L63.4741 24.6641L63.5164 24.7652C63.8062 25.4586 64.1165 26.2053 64.887 26.3991C64.9401 26.3462 64.887 26.374 64.9922 26.3462C65.1787 24.8809 65.2312 23.4697 65.7344 22.3231C66.0252 21.6063 66.6057 21.0995 67.0037 20.5143C67.2691 20.6737 67.2691 21.1544 67.4272 21.4725C67.7715 22.2976 68.1413 23.2022 68.5659 24.0297C69.4372 25.7339 70.4176 27.3861 71.5285 28.8768C71.9005 29.4093 72.4284 29.9954 72.9045 30.475C73.1166 30.6606 73.3541 30.7679 73.5135 31.0069H73.5654V31.0873C72.7717 30.7936 72.2685 29.9693 71.6354 29.488C70.4434 28.5834 69.016 27.225 68.1944 25.9214C67.8508 25.1731 67.4793 24.4558 67.109 23.7112V23.6574C66.9507 23.8701 67.0037 24.0813 66.9245 24.4031C66.5809 25.7339 66.8455 27.252 65.6548 27.7306C64.3052 28.2912 63.2984 26.826 62.8759 26.1602C61.5258 23.9502 61.1561 20.2219 62.1081 17.2123C62.3196 16.5461 62.3484 15.7471 62.7176 15.2152C62.6378 14.7343 62.2686 14.6028 62.055 14.3082C61.6847 13.8046 61.3676 13.2179 61.0776 12.6586C60.5206 11.5661 60.1242 10.2607 59.7014 9.08902C59.5154 8.61056 59.4622 8.13023 59.2768 7.67728C58.9607 6.98593 58.3779 6.29235 57.9283 5.68072C57.3195 4.80163 55.5464 3.09785 56.2611 1.36576ZM64.9395 6.58345C65.0102 6.6546 65.0956 6.7168 65.1839 6.77808L65.2904 6.85146C65.4324 6.95017 65.5698 7.0541 65.6541 7.19564C65.7877 7.38301 65.8125 7.56795 65.9725 7.75569C65.9725 8.39581 65.7877 8.82139 65.4145 9.0866C65.4145 9.0866 65.3891 9.11454 65.363 9.14061C65.1514 8.71392 64.9661 8.28947 64.7531 7.86315C64.4907 7.49103 64.1198 7.19583 63.906 6.77063H63.8546V6.71718C64.174 6.63802 64.4907 6.58345 64.9395 6.58345Z" fill="#00758F"/>
</g>
<defs>
<clipPath id="clip0_2_81">
<rect width="95" height="65" fill="white"/>
</clipPath>
</defs>
</svg>
