<svg width="110" height="110" viewBox="0 0 110 110" fill="none" xmlns="http://www.w3.org/2000/svg">
<g clip-path="url(#clip0_2_34)">
<path d="M55 110C85.3757 110 110 85.3757 110 55C110 24.6243 85.3757 0 55 0C24.6243 0 0 24.6243 0 55C0 85.3757 24.6243 110 55 110Z" fill="black"/>
<path d="M91.3662 96.262L42.2529 33H33V76.982H40.4027V42.4007L85.5542 100.739C87.589 99.3774 89.5306 97.8819 91.3662 96.262Z" fill="url(#paint0_linear_2_34)"/>
<path d="M70.278 33H77.611V77H70.278V33Z" fill="url(#paint1_linear_2_34)"/>
</g>
<defs>
<linearGradient id="paint0_linear_2_34" x1="66.611" y1="71.1943" x2="88.3054" y2="98.0832" gradientUnits="userSpaceOnUse">
<stop stop-color="white"/>
<stop offset="1" stop-color="white" stop-opacity="0"/>
</linearGradient>
<linearGradient id="paint1_linear_2_34" x1="73.9443" y1="32.9999" x2="73.8215" y2="65.3124" gradientUnits="userSpaceOnUse">
<stop stop-color="white"/>
<stop offset="1" stop-color="white" stop-opacity="0"/>
</linearGradient>
<clipPath id="clip0_2_34">
<rect width="110" height="110" fill="white"/>
</clipPath>
</defs>
</svg>
