<svg width="109" height="123" viewBox="0 0 109 123" fill="none" xmlns="http://www.w3.org/2000/svg">
<g clip-path="url(#clip0_2_62)">
<path d="M54.5 122.772C52.8075 122.772 51.2279 122.321 49.7611 121.532L34.7535 112.621C32.4969 111.38 33.6252 110.929 34.3022 110.704C37.3487 109.689 37.9128 109.463 41.0721 107.658C41.4111 107.432 41.8624 107.545 42.2005 107.771L53.7102 114.651C54.1615 114.877 54.7257 114.877 55.0642 114.651L100.086 88.5969C100.538 88.3713 100.763 87.9202 100.763 87.3562V35.3596C100.763 34.7957 100.538 34.3445 100.086 34.1189L55.0642 8.17701C54.6128 7.95144 54.0487 7.95144 53.7102 8.17701L8.68807 34.1194C8.23674 34.3449 8.01107 34.9089 8.01107 35.36V87.3562C8.01107 87.8074 8.23674 88.3713 8.68807 88.5969L20.9876 95.7024C27.6451 99.0859 31.8195 95.1384 31.8195 91.1909V39.871C31.8195 39.1943 32.3841 38.5176 33.1739 38.5176H38.9288C39.6057 38.5176 40.2827 39.0815 40.2827 39.871V91.1905C40.2827 100.101 35.4305 105.289 26.9677 105.289C24.3726 105.289 22.3416 105.289 16.5872 102.469L4.73895 95.7024C1.80531 94.0101 0 90.8522 0 87.4686V35.4728C0 32.0892 1.80531 28.9312 4.73895 27.239L49.7611 1.18474C52.5819 -0.394261 56.4181 -0.394261 59.2389 1.18474L104.261 27.239C107.195 28.9308 109 32.0888 109 35.4728V87.469C109 90.8526 107.195 94.0106 104.261 95.7024L59.2389 121.757C57.7721 122.434 56.0796 122.773 54.5 122.773M68.3788 87.0179C48.6323 87.0179 44.5704 77.995 44.5704 70.3252C44.5704 69.6485 45.1345 68.9718 45.9243 68.9718H51.7916C52.4686 68.9718 53.0332 69.4229 53.0332 70.0996C53.9358 76.0773 56.531 79.0101 68.4916 79.0101C77.9699 79.0101 82.0323 76.8672 82.0323 71.7918C82.0323 68.859 80.904 66.7161 66.1221 65.2494C53.823 64.0088 46.15 61.3019 46.15 51.4896C46.15 42.3531 53.8226 36.9394 66.6863 36.9394C81.1292 36.9394 88.2381 41.902 89.1407 52.7298C89.1407 53.0683 89.0279 53.4067 88.8022 53.7449C88.5766 53.9705 88.2381 54.196 87.8996 54.196H82.0323C81.4677 54.196 80.904 53.7449 80.7907 53.181C79.4367 46.9778 75.9389 44.9476 66.6863 44.9476C56.3057 44.9476 55.0642 48.5568 55.0642 51.2636C55.0642 54.5348 56.531 55.5495 70.5226 57.354C84.4018 59.1586 90.946 61.7531 90.946 71.4531C90.8332 81.3786 82.7093 87.0179 68.3788 87.0179Z" fill="#539E43"/>
</g>
<defs>
<clipPath id="clip0_2_62">
<rect width="109" height="123" fill="white"/>
</clipPath>
</defs>
</svg>
