<svg width="110" height="100" viewBox="0 0 110 100" fill="none" xmlns="http://www.w3.org/2000/svg">
<g clip-path="url(#clip0_2_32)">
<path d="M90.4419 32.3789C89.2712 31.969 88.0907 31.5892 86.9013 31.2398C87.1011 30.4065 87.285 29.5833 87.4483 28.7745C90.1287 15.4933 88.3764 4.79378 82.3913 1.27098C76.6528 -2.10622 67.268 1.41527 57.79 9.83501C56.8558 10.6663 55.9425 11.5215 55.0507 12.3999C54.4537 11.8158 53.8462 11.2431 53.2284 10.6819C43.2949 1.67931 33.3382 -2.11499 27.3595 1.41791C21.6262 4.80563 19.9285 14.864 22.3416 27.4508C22.5817 28.6974 22.8528 29.9376 23.1546 31.1701C21.7452 31.5789 20.3852 32.014 19.0837 32.4771C7.43746 36.6219 0 43.117 0 49.8543C0 56.8126 7.98445 63.792 20.1145 68.0241C21.098 68.3657 22.0896 68.6823 23.0884 68.9736C22.7641 70.3011 22.4761 71.6376 22.2247 72.9815C19.9242 85.3499 21.7207 95.1705 27.4386 98.5368C33.3442 102.013 43.2562 98.4403 52.9074 89.8284C53.69 89.1283 54.4553 88.4083 55.2028 87.6692C56.1685 88.6204 57.1601 89.5438 58.1762 90.4385C67.5254 98.6499 76.7585 101.966 82.4708 98.5903C88.3708 95.1039 90.2885 84.5539 87.7989 71.7184C87.6028 70.7128 87.3829 69.7122 87.1393 68.7175C87.8354 68.5069 88.5186 68.2903 89.1847 68.0648C101.795 63.8004 110 56.9056 110 49.8543C110 43.0925 102.322 36.5534 90.4419 32.3789ZM87.707 63.5122C87.1048 63.7151 86.4889 63.9118 85.8593 64.1021C84.4671 59.6034 82.5885 54.8201 80.2893 49.8776C82.4832 45.053 84.2896 40.3306 85.6427 35.8613C86.7681 36.1938 87.8599 36.5442 88.9127 36.914C99.092 40.4912 105.301 45.7793 105.301 49.8543C105.301 54.1947 98.5952 59.8293 87.707 63.5122ZM83.1892 72.6499C84.2901 78.3254 84.4469 83.4569 83.7177 87.4688C83.0629 91.0736 81.7455 93.4767 80.1161 94.4394C76.6498 96.4877 69.2364 93.8254 61.2412 86.8026C60.2961 85.9707 59.3738 85.1121 58.4753 84.228C61.5751 80.7679 64.6727 76.7455 67.696 72.278C73.0138 71.7964 78.0377 71.0087 82.5937 69.9337C82.8185 70.8583 83.0171 71.7637 83.1892 72.6499ZM37.5014 94.0855C34.1146 95.3061 31.417 95.3412 29.7864 94.3815C26.3166 92.339 24.8742 84.4534 26.8417 73.8762C27.0756 72.6264 27.3434 71.3833 27.6448 70.1486C32.1505 71.1662 37.1379 71.8977 42.4682 72.339C45.5121 76.7105 48.6991 80.7284 51.911 84.2469C51.2284 84.921 50.5296 85.5779 49.8154 86.217C45.5473 90.0249 41.2706 92.7267 37.5014 94.0855ZM21.6348 63.4855C16.271 61.614 11.8413 59.1819 8.80516 56.528C6.07664 54.1434 4.69949 51.7754 4.69949 49.8543C4.69949 45.7657 10.6709 40.5508 20.6306 37.0065C21.8393 36.5767 23.1043 36.171 24.417 35.7903C25.7937 40.3605 27.5993 45.139 29.7782 49.971C27.5709 54.8745 25.7396 59.7293 24.3495 64.3534C23.4378 64.0868 22.5326 63.7974 21.6348 63.4855ZM26.9534 26.5293C24.8862 15.7455 26.2591 7.61089 29.7142 5.56922C33.394 3.39466 41.5314 6.4951 50.1084 14.2688C50.6678 14.7768 51.218 15.2952 51.7589 15.8236C48.5629 19.3267 45.4051 23.3148 42.3882 27.6605C37.2148 28.1499 32.2627 28.9359 27.7097 29.989C27.4291 28.8426 27.1769 27.6887 26.9534 26.5293ZM74.4025 38.4894C73.3271 36.5933 72.2118 34.7211 71.0574 32.874C74.5671 33.3271 77.9298 33.9284 81.0876 34.6635C80.1397 37.7653 78.9581 41.0078 77.5672 44.3324C76.5505 42.3634 75.4954 40.4154 74.4025 38.4894ZM55.0529 19.2521C57.2202 21.649 59.391 24.3249 61.5261 27.2284C57.1948 27.0196 52.8564 27.0187 48.525 27.2258C50.6623 24.349 52.8516 21.6767 55.0529 19.2521ZM35.579 38.5219C34.4997 40.4323 33.4643 42.3682 32.4736 44.328C31.1055 41.0153 29.9346 37.7578 28.9786 34.6122C32.117 33.8955 35.4638 33.3096 38.9512 32.8648C37.784 34.7232 36.6596 36.6097 35.579 38.5219ZM39.0513 67.1846C35.4484 66.7741 32.0513 66.2184 28.9137 65.521C29.8848 62.3192 31.0814 58.9925 32.4792 55.6087C33.4738 57.5699 34.5136 59.507 35.5975 61.4183C36.7121 63.3833 37.8662 65.3078 39.0513 67.1846ZM55.1826 80.7942C52.9551 78.3416 50.7336 75.628 48.5641 72.7096C50.6705 72.7938 52.8176 72.8368 55 72.8368C57.2421 72.8368 59.4584 72.7855 61.64 72.6863C59.498 75.6574 57.3354 78.3749 55.1826 80.7942ZM77.6114 55.4359C79.0818 58.8569 80.3211 62.1662 81.305 65.3131C78.1159 66.0561 74.6724 66.6543 71.0441 67.0986C72.2068 65.2173 73.3326 63.3125 74.421 61.3855C75.5277 59.4267 76.5914 57.443 77.6114 55.4359ZM70.3506 58.989C68.6842 61.9434 66.9243 64.8419 65.0736 67.6798C61.721 67.9223 58.361 68.0427 55 68.0407C51.5767 68.0407 48.247 67.9319 45.0407 67.7197C43.1415 64.8885 41.348 61.985 39.664 59.0153C37.9877 56.0615 36.4226 53.0436 34.971 49.9683C36.4189 46.8924 37.9798 43.8731 39.6503 40.917L39.6498 40.9175C41.3195 37.9605 43.0987 35.0694 44.9836 32.2504C48.2548 31.9977 51.6093 31.8662 54.9996 31.8662C58.4053 31.8662 61.7646 31.999 65.0349 32.2534C66.9008 35.0682 68.6686 37.9494 70.3351 40.8916C72.0109 43.8413 73.5925 46.8458 75.0772 49.9004C73.6077 52.9861 72.0311 56.0176 70.3506 58.989ZM80.0443 5.4258C83.7276 7.59422 85.1602 16.3385 82.8459 27.8056C82.6975 28.5378 82.5328 29.2819 82.3518 30.0381C77.7876 28.9626 72.832 28.1631 67.6436 27.6662C64.6211 23.2727 61.4891 19.2784 58.3451 15.8205C59.1691 15.0098 60.0127 14.2201 60.8751 13.4521C68.9962 6.23852 76.5862 3.39027 80.0443 5.4258ZM55 39.828C60.4248 39.828 64.8227 44.317 64.8227 49.8543C64.8227 55.3916 60.4248 59.8806 55 59.8806C49.5752 59.8806 45.1773 55.3916 45.1773 49.8543C45.1773 44.317 49.5752 39.828 55 39.828Z" fill="#00D8FF"/>
</g>
<defs>
<clipPath id="clip0_2_32">
<rect width="110" height="100" fill="white"/>
</clipPath>
</defs>
</svg>
